<svg xmlns="http://www.w3.org/2000/svg" xmlns:xlink="http://www.w3.org/1999/xlink" width="1024" zoomAndPan="magnify" viewBox="0 0 768 767.999994" height="1024" preserveAspectRatio="xMidYMid meet" version="1.0"><defs><clipPath id="e0477af005"><path d="M 329.757812 363.847656 L 335.839844 363.847656 L 335.839844 375.019531 L 329.757812 375.019531 Z M 329.757812 363.847656 " clip-rule="nonzero"/></clipPath><clipPath id="21d13f6100"><path d="M 332.800781 363.847656 C 334.480469 363.847656 335.839844 365.210938 335.839844 366.890625 L 335.839844 371.960938 C 335.839844 373.640625 334.480469 375.003906 332.800781 375.003906 C 331.121094 375.003906 329.757812 373.640625 329.757812 371.960938 L 329.757812 366.890625 C 329.757812 365.210938 331.121094 363.847656 332.800781 363.847656 Z M 332.800781 363.847656 " clip-rule="nonzero"/></clipPath><clipPath id="bf7d2fbe90"><path d="M 0.757812 0.847656 L 6.839844 0.847656 L 6.839844 12 L 0.757812 12 Z M 0.757812 0.847656 " clip-rule="nonzero"/></clipPath><clipPath id="b8d44ec9a5"><path d="M 3.800781 0.847656 C 5.480469 0.847656 6.839844 2.210938 6.839844 3.890625 L 6.839844 8.960938 C 6.839844 10.640625 5.480469 12.003906 3.800781 12.003906 C 2.121094 12.003906 0.757812 10.640625 0.757812 8.960938 L 0.757812 3.890625 C 0.757812 2.210938 2.121094 0.847656 3.800781 0.847656 Z M 3.800781 0.847656 " clip-rule="nonzero"/></clipPath><clipPath id="7079471bae"><rect x="0" width="7" y="0" height="13"/></clipPath></defs><g clip-path="url(#e0477af005)"><g clip-path="url(#21d13f6100)"><g transform="matrix(1, 0, 0, 1, 329, 363)"><g clip-path="url(#7079471bae)"><g clip-path="url(#bf7d2fbe90)"><g clip-path="url(#b8d44ec9a5)"><path fill="#ff00bf" d="M 0.757812 0.847656 L 6.839844 0.847656 L 6.839844 11.992188 L 0.757812 11.992188 Z M 0.757812 0.847656 " fill-opacity="1" fill-rule="nonzero"/></g></g></g></g></g></g><path fill="#ff00bf" d="M 756 684 L 708 684 L 708 348 C 708 347.210938 707.921875 346.429688 707.769531 345.660156 C 707.617188 344.886719 707.390625 344.136719 707.085938 343.40625 C 706.785156 342.679688 706.417969 341.988281 705.980469 341.332031 C 705.539062 340.675781 705.042969 340.070312 704.484375 339.515625 C 703.929688 338.957031 703.324219 338.460938 702.667969 338.019531 C 702.011719 337.582031 701.320312 337.214844 700.59375 336.914062 C 699.863281 336.609375 699.113281 336.382812 698.339844 336.230469 C 697.570312 336.078125 696.789062 336 696 336 L 624 336 C 623.210938 336 622.429688 336.078125 621.660156 336.230469 C 620.886719 336.382812 620.136719 336.609375 619.40625 336.914062 C 618.679688 337.214844 617.988281 337.582031 617.332031 338.019531 C 616.675781 338.460938 616.070312 338.957031 615.515625 339.515625 C 614.957031 340.070312 614.460938 340.675781 614.019531 341.332031 C 613.582031 341.988281 613.214844 342.679688 612.914062 343.40625 C 612.609375 344.136719 612.382812 344.886719 612.230469 345.660156 C 612.078125 346.429688 612 347.210938 612 348 L 612 684 L 552 684 L 552 456 C 552 455.210938 551.921875 454.429688 551.769531 453.660156 C 551.617188 452.886719 551.390625 452.136719 551.085938 451.40625 C 550.785156 450.679688 550.417969 449.988281 549.980469 449.332031 C 549.539062 448.675781 549.042969 448.070312 548.484375 447.515625 C 547.929688 446.957031 547.324219 446.460938 546.667969 446.019531 C 546.011719 445.582031 545.320312 445.214844 544.59375 444.914062 C 543.863281 444.609375 543.113281 444.382812 542.339844 444.230469 C 541.570312 444.078125 540.789062 444 540 444 L 468 444 C 467.210938 444 466.429688 444.078125 465.660156 444.230469 C 464.886719 444.382812 464.136719 444.609375 463.40625 444.914062 C 462.679688 445.214844 461.988281 445.582031 461.332031 446.019531 C 460.675781 446.460938 460.070312 446.957031 459.515625 447.515625 C 458.957031 448.070312 458.460938 448.675781 458.019531 449.332031 C 457.582031 449.988281 457.214844 450.679688 456.914062 451.40625 C 456.609375 452.136719 456.382812 452.886719 456.230469 453.660156 C 456.078125 454.429688 456 455.210938 456 456 L 456 684 L 396 684 L 396 396 C 396 395.210938 395.921875 394.429688 395.769531 393.660156 C 395.617188 392.886719 395.390625 392.136719 395.085938 391.40625 C 394.785156 390.679688 394.417969 389.988281 393.980469 389.332031 C 393.539062 388.675781 393.042969 388.070312 392.484375 387.515625 C 391.929688 386.957031 391.324219 386.460938 390.667969 386.019531 C 390.011719 385.582031 389.320312 385.214844 388.59375 384.914062 C 387.863281 384.609375 387.113281 384.382812 386.339844 384.230469 C 385.570312 384.078125 384.789062 384 384 384 L 312 384 C 311.210938 384 310.429688 384.078125 309.660156 384.230469 C 308.886719 384.382812 308.136719 384.609375 307.40625 384.914062 C 306.679688 385.214844 305.988281 385.582031 305.332031 386.019531 C 304.675781 386.460938 304.070312 386.957031 303.515625 387.515625 C 302.957031 388.070312 302.460938 388.675781 302.019531 389.332031 C 301.582031 389.988281 301.214844 390.679688 300.914062 391.40625 C 300.609375 392.136719 300.382812 392.886719 300.230469 393.660156 C 300.078125 394.429688 300 395.210938 300 396 L 300 684 L 240 684 L 240 528 C 240 527.210938 239.921875 526.429688 239.769531 525.660156 C 239.617188 524.886719 239.390625 524.136719 239.085938 523.40625 C 238.785156 522.679688 238.417969 521.988281 237.980469 521.332031 C 237.539062 520.675781 237.042969 520.070312 236.484375 519.515625 C 235.929688 518.957031 235.324219 518.460938 234.667969 518.019531 C 234.011719 517.582031 233.320312 517.214844 232.59375 516.914062 C 231.863281 516.609375 231.113281 516.382812 230.339844 516.230469 C 229.570312 516.078125 228.789062 516 228 516 L 156 516 C 155.210938 516 154.429688 516.078125 153.660156 516.230469 C 152.886719 516.382812 152.136719 516.609375 151.40625 516.914062 C 150.679688 517.214844 149.988281 517.582031 149.332031 518.019531 C 148.675781 518.460938 148.070312 518.957031 147.515625 519.515625 C 146.957031 520.070312 146.460938 520.675781 146.019531 521.332031 C 145.582031 521.988281 145.214844 522.679688 144.914062 523.40625 C 144.609375 524.136719 144.382812 524.886719 144.230469 525.660156 C 144.078125 526.429688 144 527.210938 144 528 L 144 684 L 84 684 L 84 12 C 84 11.210938 83.921875 10.429688 83.769531 9.660156 C 83.617188 8.886719 83.390625 8.136719 83.085938 7.40625 C 82.785156 6.679688 82.417969 5.988281 81.980469 5.332031 C 81.539062 4.675781 81.042969 4.070312 80.484375 3.515625 C 79.929688 2.957031 79.324219 2.460938 78.667969 2.019531 C 78.011719 1.582031 77.320312 1.214844 76.59375 0.914062 C 75.863281 0.609375 75.113281 0.382812 74.339844 0.230469 C 73.570312 0.078125 72.789062 0 72 0 L 12 0 C 11.210938 0 10.429688 0.078125 9.660156 0.230469 C 8.886719 0.382812 8.136719 0.609375 7.40625 0.914062 C 6.679688 1.214844 5.988281 1.582031 5.332031 2.019531 C 4.675781 2.460938 4.070312 2.957031 3.515625 3.515625 C 2.957031 4.070312 2.460938 4.675781 2.019531 5.332031 C 1.582031 5.988281 1.214844 6.679688 0.914062 7.40625 C 0.609375 8.136719 0.382812 8.886719 0.230469 9.660156 C 0.078125 10.429688 0 11.210938 0 12 L 0 696 C 0 697.179688 0.03125 698.355469 0.0898438 699.53125 C 0.148438 700.707031 0.238281 701.882812 0.355469 703.054688 C 0.46875 704.226562 0.617188 705.394531 0.789062 706.5625 C 0.964844 707.726562 1.164062 708.886719 1.398438 710.039062 C 1.628906 711.195312 1.886719 712.34375 2.171875 713.488281 C 2.460938 714.628906 2.773438 715.765625 3.117188 716.890625 C 3.460938 718.019531 3.832031 719.136719 4.226562 720.246094 C 4.625 721.355469 5.050781 722.453125 5.5 723.539062 C 5.953125 724.628906 6.429688 725.707031 6.933594 726.769531 C 7.4375 727.835938 7.96875 728.886719 8.523438 729.925781 C 9.082031 730.964844 9.660156 731.988281 10.265625 733 C 10.875 734.007812 11.503906 735.003906 12.160156 735.980469 C 12.8125 736.960938 13.492188 737.925781 14.191406 738.871094 C 14.894531 739.816406 15.621094 740.746094 16.367188 741.65625 C 17.113281 742.566406 17.882812 743.457031 18.675781 744.328125 C 19.464844 745.203125 20.277344 746.054688 21.113281 746.886719 C 21.945312 747.722656 22.796875 748.535156 23.671875 749.324219 C 24.542969 750.117188 25.433594 750.886719 26.34375 751.632812 C 27.253906 752.378906 28.183594 753.105469 29.128906 753.804688 C 30.074219 754.507812 31.039062 755.1875 32.015625 755.839844 C 32.996094 756.496094 33.992188 757.125 35 757.734375 C 36.011719 758.339844 37.035156 758.917969 38.074219 759.476562 C 39.113281 760.03125 40.164062 760.5625 41.230469 761.066406 C 42.292969 761.570312 43.371094 762.046875 44.460938 762.5 C 45.546875 762.949219 46.644531 763.375 47.753906 763.773438 C 48.863281 764.167969 49.980469 764.539062 51.109375 764.882812 C 52.234375 765.226562 53.371094 765.539062 54.511719 765.828125 C 55.65625 766.113281 56.804688 766.371094 57.957031 766.601562 C 59.113281 766.835938 60.273438 767.035156 61.4375 767.210938 C 62.605469 767.382812 63.773438 767.53125 64.945312 767.644531 C 66.117188 767.761719 67.292969 767.851562 68.46875 767.910156 C 69.644531 767.96875 70.820312 768 72 768 L 756 768 C 756.789062 768 757.566406 767.921875 758.339844 767.769531 C 759.113281 767.617188 759.863281 767.390625 760.59375 767.085938 C 761.320312 766.785156 762.011719 766.417969 762.667969 765.980469 C 763.324219 765.539062 763.929688 765.042969 764.484375 764.484375 C 765.042969 763.929688 765.539062 763.324219 765.980469 762.667969 C 766.417969 762.011719 766.785156 761.320312 767.085938 760.59375 C 767.390625 759.863281 767.617188 759.113281 767.769531 758.339844 C 767.921875 757.570312 768 756.789062 768 756 L 768 696 C 768 695.210938 767.921875 694.429688 767.769531 693.660156 C 767.617188 692.886719 767.390625 692.136719 767.085938 691.40625 C 766.785156 690.679688 766.417969 689.988281 765.980469 689.332031 C 765.539062 688.675781 765.042969 688.070312 764.484375 687.515625 C 763.929688 686.957031 763.324219 686.460938 762.667969 686.019531 C 762.011719 685.582031 761.320312 685.214844 760.59375 684.914062 C 759.863281 684.609375 759.113281 684.382812 758.339844 684.230469 C 757.566406 684.078125 756.789062 684 756 684 Z M 636 360 L 684 360 L 684 684 L 636 684 Z M 480 468 L 528 468 L 528 684 L 480 684 Z M 324 408 L 372 408 L 372 684 L 324 684 Z M 168 540 L 216 540 L 216 684 L 168 684 Z M 744 744 L 72 744 C 70.429688 744 68.859375 743.917969 67.296875 743.765625 C 65.734375 743.609375 64.179688 743.378906 62.640625 743.070312 C 61.097656 742.761719 59.574219 742.378906 58.070312 741.921875 C 56.570312 741.464844 55.089844 740.933594 53.640625 740.332031 C 52.1875 739.730469 50.769531 739.058594 49.382812 738.316406 C 47.996094 737.574219 46.652344 736.769531 45.34375 735.894531 C 44.039062 735.019531 42.777344 734.085938 41.5625 733.089844 C 40.347656 732.089844 39.183594 731.039062 38.074219 729.925781 C 36.960938 728.816406 35.910156 727.652344 34.910156 726.4375 C 33.914062 725.222656 32.980469 723.960938 32.105469 722.65625 C 31.230469 721.347656 30.425781 720.003906 29.683594 718.617188 C 28.941406 717.230469 28.269531 715.8125 27.667969 714.359375 C 27.066406 712.910156 26.535156 711.429688 26.078125 709.929688 C 25.621094 708.425781 25.238281 706.902344 24.929688 705.359375 C 24.621094 703.820312 24.390625 702.265625 24.234375 700.703125 C 24.082031 699.140625 24 697.570312 24 696 L 24 24 L 60 24 L 60 696 C 60 696.789062 60.078125 697.570312 60.230469 698.339844 C 60.382812 699.113281 60.609375 699.863281 60.914062 700.59375 C 61.214844 701.320312 61.582031 702.011719 62.019531 702.667969 C 62.460938 703.324219 62.957031 703.929688 63.515625 704.484375 C 64.070312 705.042969 64.675781 705.539062 65.332031 705.980469 C 65.988281 706.417969 66.679688 706.785156 67.40625 707.085938 C 68.136719 707.390625 68.886719 707.617188 69.660156 707.769531 C 70.429688 707.921875 71.210938 708 72 708 L 744 708 Z M 744 744 " fill-opacity="1" fill-rule="nonzero"/><path fill="#ff00bf" d="M 201.316406 475.5625 L 349.652344 292.996094 L 484.3125 405.21875 C 484.898438 405.703125 485.519531 406.128906 486.1875 406.496094 C 486.851562 406.863281 487.546875 407.167969 488.265625 407.402344 C 488.988281 407.636719 489.726562 407.804688 490.480469 407.898438 C 491.234375 407.996094 491.992188 408.019531 492.75 407.972656 C 493.507812 407.925781 494.253906 407.804688 494.992188 407.617188 C 495.726562 407.429688 496.4375 407.171875 497.125 406.847656 C 497.8125 406.523438 498.464844 406.136719 499.078125 405.6875 C 499.691406 405.242188 500.257812 404.742188 500.777344 404.1875 L 648 246.445312 L 648 288 C 648 288.789062 648.078125 289.566406 648.230469 290.339844 C 648.382812 291.113281 648.613281 291.863281 648.914062 292.59375 C 649.214844 293.320312 649.585938 294.011719 650.023438 294.667969 C 650.460938 295.320312 650.957031 295.929688 651.515625 296.484375 C 652.070312 297.042969 652.679688 297.539062 653.332031 297.976562 C 653.988281 298.414062 654.679688 298.785156 655.40625 299.085938 C 656.136719 299.386719 656.886719 299.617188 657.660156 299.769531 C 658.429688 299.921875 659.210938 300 660 300 C 660.789062 300 661.566406 299.921875 662.339844 299.769531 C 663.113281 299.617188 663.863281 299.386719 664.59375 299.085938 C 665.320312 298.785156 666.011719 298.414062 666.667969 297.976562 C 667.320312 297.539062 667.929688 297.042969 668.484375 296.484375 C 669.042969 295.929688 669.539062 295.320312 669.976562 294.667969 C 670.414062 294.011719 670.785156 293.320312 671.085938 292.59375 C 671.386719 291.863281 671.617188 291.113281 671.769531 290.339844 C 671.921875 289.566406 672 288.789062 672 288 L 672 216 C 671.980469 215.21875 671.886719 214.445312 671.71875 213.679688 C 671.550781 212.914062 671.3125 212.175781 671.007812 211.457031 C 670.699219 210.734375 670.324219 210.050781 669.886719 209.40625 C 669.445312 208.757812 668.949219 208.15625 668.398438 207.601562 C 667.84375 207.050781 667.242188 206.554688 666.59375 206.113281 C 665.949219 205.675781 665.265625 205.300781 664.542969 204.992188 C 663.824219 204.683594 663.085938 204.449219 662.320312 204.28125 C 661.554688 204.113281 660.78125 204.019531 660 204 L 588 204 C 587.210938 204 586.429688 204.078125 585.660156 204.230469 C 584.886719 204.382812 584.136719 204.613281 583.40625 204.914062 C 582.679688 205.214844 581.988281 205.585938 581.332031 206.023438 C 580.679688 206.460938 580.070312 206.957031 579.515625 207.515625 C 578.957031 208.070312 578.460938 208.679688 578.023438 209.332031 C 577.585938 209.988281 577.214844 210.679688 576.914062 211.40625 C 576.613281 212.136719 576.382812 212.886719 576.230469 213.660156 C 576.078125 214.433594 576 215.210938 576 216 C 576 216.789062 576.078125 217.566406 576.230469 218.339844 C 576.382812 219.113281 576.613281 219.863281 576.914062 220.59375 C 577.214844 221.320312 577.585938 222.011719 578.023438 222.667969 C 578.460938 223.320312 578.957031 223.929688 579.515625 224.484375 C 580.070312 225.042969 580.679688 225.539062 581.332031 225.976562 C 581.988281 226.414062 582.679688 226.785156 583.40625 227.085938 C 584.136719 227.386719 584.886719 227.617188 585.660156 227.769531 C 586.429688 227.921875 587.210938 228 588 228 L 632.382812 228 L 490.96875 379.515625 L 355.6875 266.78125 C 354.457031 265.746094 353.078125 264.992188 351.539062 264.519531 C 350.003906 264.046875 348.4375 263.894531 346.839844 264.058594 C 345.242188 264.214844 343.738281 264.671875 342.324219 265.429688 C 340.910156 266.1875 339.695312 267.191406 338.683594 268.4375 L 182.683594 460.4375 C 182.1875 461.046875 181.757812 461.703125 181.390625 462.398438 C 181.027344 463.09375 180.730469 463.820312 180.507812 464.574219 C 180.285156 465.332031 180.136719 466.097656 180.066406 466.882812 C 179.992188 467.667969 180 468.449219 180.082031 469.234375 C 180.164062 470.015625 180.320312 470.78125 180.550781 471.535156 C 180.785156 472.285156 181.089844 473.007812 181.464844 473.699219 C 181.839844 474.390625 182.277344 475.039062 182.78125 475.644531 C 183.285156 476.25 183.839844 476.800781 184.449219 477.296875 C 185.0625 477.792969 185.714844 478.226562 186.410156 478.59375 C 187.105469 478.960938 187.832031 479.257812 188.585938 479.480469 C 189.339844 479.707031 190.109375 479.855469 190.894531 479.929688 C 191.675781 480.003906 192.460938 480 193.242188 479.917969 C 194.023438 479.839844 194.792969 479.683594 195.542969 479.453125 C 196.296875 479.21875 197.019531 478.917969 197.710938 478.542969 C 198.40625 478.171875 199.054688 477.734375 199.660156 477.230469 C 200.265625 476.730469 200.820312 476.175781 201.316406 475.566406 Z M 201.316406 475.5625 " fill-opacity="1" fill-rule="nonzero"/><path fill="#ff00bf" d="M 348 240 C 349.964844 240 351.925781 239.953125 353.886719 239.855469 C 355.851562 239.757812 357.808594 239.613281 359.761719 239.421875 C 361.714844 239.230469 363.664062 238.988281 365.609375 238.703125 C 367.550781 238.414062 369.484375 238.078125 371.410156 237.695312 C 373.335938 237.3125 375.253906 236.882812 377.15625 236.402344 C 379.0625 235.925781 380.953125 235.402344 382.835938 234.832031 C 384.714844 234.261719 386.578125 233.648438 388.425781 232.984375 C 390.277344 232.324219 392.109375 231.617188 393.921875 230.867188 C 395.734375 230.113281 397.53125 229.320312 399.304688 228.480469 C 401.082031 227.640625 402.835938 226.757812 404.566406 225.832031 C 406.300781 224.90625 408.007812 223.9375 409.691406 222.925781 C 411.375 221.917969 413.035156 220.867188 414.667969 219.777344 C 416.300781 218.683594 417.90625 217.554688 419.484375 216.386719 C 421.0625 215.214844 422.609375 214.007812 424.128906 212.761719 C 425.644531 211.515625 427.132812 210.234375 428.585938 208.914062 C 430.042969 207.59375 431.464844 206.242188 432.851562 204.851562 C 434.242188 203.464844 435.59375 202.042969 436.914062 200.585938 C 438.234375 199.132812 439.515625 197.644531 440.761719 196.128906 C 442.007812 194.609375 443.214844 193.0625 444.386719 191.484375 C 445.554688 189.90625 446.683594 188.300781 447.777344 186.667969 C 448.867188 185.035156 449.917969 183.375 450.925781 181.691406 C 451.9375 180.007812 452.90625 178.300781 453.832031 176.566406 C 454.757812 174.835938 455.640625 173.082031 456.480469 171.304688 C 457.316406 169.53125 458.113281 167.738281 458.867188 165.921875 C 459.617188 164.109375 460.324219 162.277344 460.984375 160.425781 C 461.648438 158.578125 462.261719 156.714844 462.832031 154.835938 C 463.402344 152.953125 463.925781 151.0625 464.402344 149.15625 C 464.878906 147.253906 465.3125 145.335938 465.695312 143.410156 C 466.078125 141.484375 466.414062 139.550781 466.699219 137.609375 C 466.988281 135.664062 467.230469 133.714844 467.421875 131.761719 C 467.613281 129.808594 467.757812 127.851562 467.855469 125.886719 C 467.953125 123.925781 468 121.964844 468 120 C 468 118.035156 467.953125 116.074219 467.855469 114.113281 C 467.757812 112.148438 467.613281 110.191406 467.421875 108.238281 C 467.230469 106.285156 466.988281 104.335938 466.699219 102.390625 C 466.414062 100.449219 466.078125 98.515625 465.695312 96.589844 C 465.3125 94.664062 464.878906 92.746094 464.402344 90.84375 C 463.925781 88.9375 463.402344 87.046875 462.832031 85.164062 C 462.261719 83.285156 461.648438 81.421875 460.984375 79.574219 C 460.324219 77.722656 459.617188 75.890625 458.867188 74.078125 C 458.113281 72.261719 457.316406 70.46875 456.480469 68.695312 C 455.640625 66.917969 454.757812 65.164062 453.832031 63.433594 C 452.90625 61.699219 451.9375 59.992188 450.925781 58.308594 C 449.917969 56.625 448.867188 54.964844 447.777344 53.332031 C 446.683594 51.699219 445.554688 50.09375 444.386719 48.515625 C 443.214844 46.9375 442.007812 45.390625 440.761719 43.871094 C 439.515625 42.355469 438.234375 40.867188 436.914062 39.414062 C 435.59375 37.957031 434.242188 36.535156 432.851562 35.148438 C 431.464844 33.757812 430.042969 32.40625 428.585938 31.085938 C 427.132812 29.765625 425.644531 28.484375 424.128906 27.238281 C 422.609375 25.992188 421.0625 24.785156 419.484375 23.613281 C 417.90625 22.445312 416.300781 21.316406 414.667969 20.222656 C 413.035156 19.132812 411.375 18.082031 409.691406 17.074219 C 408.007812 16.0625 406.300781 15.09375 404.566406 14.167969 C 402.835938 13.242188 401.082031 12.359375 399.304688 11.519531 C 397.53125 10.679688 395.734375 9.886719 393.921875 9.132812 C 392.109375 8.382812 390.277344 7.675781 388.425781 7.015625 C 386.578125 6.351562 384.714844 5.738281 382.835938 5.167969 C 380.953125 4.597656 379.0625 4.074219 377.15625 3.597656 C 375.253906 3.117188 373.335938 2.6875 371.410156 2.304688 C 369.484375 1.921875 367.550781 1.585938 365.609375 1.300781 C 363.664062 1.011719 361.714844 0.769531 359.761719 0.578125 C 357.808594 0.386719 355.851562 0.242188 353.886719 0.144531 C 351.925781 0.046875 349.964844 0 348 0 C 346.035156 0 344.074219 0.046875 342.113281 0.144531 C 340.148438 0.242188 338.191406 0.386719 336.238281 0.578125 C 334.285156 0.769531 332.335938 1.011719 330.390625 1.300781 C 328.449219 1.585938 326.515625 1.921875 324.589844 2.304688 C 322.664062 2.6875 320.746094 3.117188 318.84375 3.597656 C 316.9375 4.074219 315.046875 4.597656 313.164062 5.167969 C 311.285156 5.738281 309.421875 6.351562 307.574219 7.015625 C 305.722656 7.675781 303.890625 8.382812 302.078125 9.132812 C 300.261719 9.886719 298.46875 10.679688 296.691406 11.519531 C 294.917969 12.359375 293.164062 13.242188 291.433594 14.167969 C 289.699219 15.09375 287.992188 16.0625 286.308594 17.074219 C 284.625 18.082031 282.964844 19.132812 281.332031 20.222656 C 279.699219 21.316406 278.09375 22.445312 276.515625 23.613281 C 274.9375 24.785156 273.390625 25.992188 271.871094 27.238281 C 270.355469 28.484375 268.867188 29.765625 267.414062 31.085938 C 265.957031 32.40625 264.535156 33.757812 263.148438 35.148438 C 261.757812 36.535156 260.40625 37.957031 259.085938 39.414062 C 257.765625 40.867188 256.484375 42.355469 255.238281 43.871094 C 253.992188 45.390625 252.785156 46.9375 251.613281 48.515625 C 250.445312 50.09375 249.316406 51.699219 248.222656 53.332031 C 247.132812 54.964844 246.082031 56.625 245.074219 58.308594 C 244.0625 59.992188 243.09375 61.699219 242.167969 63.433594 C 241.242188 65.164062 240.359375 66.917969 239.519531 68.695312 C 238.679688 70.46875 237.886719 72.261719 237.132812 74.078125 C 236.382812 75.890625 235.675781 77.722656 235.015625 79.574219 C 234.351562 81.421875 233.738281 83.285156 233.167969 85.164062 C 232.597656 87.046875 232.074219 88.9375 231.597656 90.84375 C 231.117188 92.746094 230.6875 94.664062 230.304688 96.589844 C 229.921875 98.515625 229.585938 100.449219 229.296875 102.390625 C 229.011719 104.335938 228.769531 106.285156 228.578125 108.238281 C 228.386719 110.191406 228.242188 112.148438 228.144531 114.113281 C 228.046875 116.074219 228 118.035156 228 120 C 228.003906 121.964844 228.050781 123.925781 228.152344 125.886719 C 228.25 127.847656 228.394531 129.804688 228.589844 131.757812 C 228.785156 133.710938 229.027344 135.660156 229.316406 137.601562 C 229.605469 139.542969 229.945312 141.476562 230.328125 143.402344 C 230.714844 145.328125 231.144531 147.242188 231.625 149.144531 C 232.101562 151.050781 232.625 152.941406 233.199219 154.820312 C 233.769531 156.695312 234.386719 158.558594 235.046875 160.410156 C 235.710938 162.257812 236.417969 164.085938 237.171875 165.902344 C 237.921875 167.714844 238.71875 169.507812 239.558594 171.28125 C 240.402344 173.058594 241.285156 174.808594 242.210938 176.539062 C 243.136719 178.273438 244.105469 179.980469 245.113281 181.664062 C 246.125 183.347656 247.175781 185.003906 248.265625 186.636719 C 249.355469 188.269531 250.488281 189.871094 251.65625 191.449219 C 252.828125 193.027344 254.035156 194.574219 255.28125 196.089844 C 256.527344 197.609375 257.808594 199.09375 259.128906 200.546875 C 260.445312 202.003906 261.800781 203.425781 263.1875 204.8125 C 264.574219 206.199219 265.996094 207.554688 267.453125 208.871094 C 268.90625 210.191406 270.390625 211.472656 271.910156 212.71875 C 273.425781 213.964844 274.972656 215.171875 276.550781 216.34375 C 278.128906 217.511719 279.730469 218.644531 281.363281 219.734375 C 282.996094 220.824219 284.652344 221.875 286.335938 222.886719 C 288.019531 223.894531 289.726562 224.863281 291.460938 225.789062 C 293.191406 226.714844 294.941406 227.597656 296.71875 228.441406 C 298.492188 229.28125 300.285156 230.078125 302.097656 230.828125 C 303.914062 231.582031 305.742188 232.289062 307.589844 232.953125 C 309.441406 233.613281 311.304688 234.230469 313.179688 234.800781 C 315.058594 235.375 316.949219 235.898438 318.855469 236.375 C 320.757812 236.855469 322.671875 237.285156 324.597656 237.671875 C 326.523438 238.054688 328.457031 238.394531 330.398438 238.683594 C 332.339844 238.972656 334.289062 239.214844 336.242188 239.410156 C 338.195312 239.605469 340.152344 239.75 342.113281 239.847656 C 344.074219 239.949219 346.035156 239.996094 348 240 Z M 348 24 C 349.570312 24 351.140625 24.039062 352.710938 24.117188 C 354.28125 24.191406 355.847656 24.308594 357.410156 24.460938 C 358.972656 24.617188 360.53125 24.808594 362.085938 25.039062 C 363.640625 25.269531 365.1875 25.539062 366.730469 25.84375 C 368.269531 26.152344 369.800781 26.496094 371.324219 26.878906 C 372.851562 27.257812 374.363281 27.675781 375.867188 28.132812 C 377.371094 28.589844 378.863281 29.082031 380.339844 29.613281 C 381.820312 30.140625 383.285156 30.707031 384.738281 31.308594 C 386.1875 31.910156 387.625 32.546875 389.046875 33.21875 C 390.464844 33.890625 391.867188 34.59375 393.253906 35.335938 C 394.640625 36.078125 396.007812 36.851562 397.355469 37.65625 C 398.703125 38.464844 400.027344 39.304688 401.335938 40.179688 C 402.640625 41.050781 403.925781 41.957031 405.1875 42.890625 C 406.449219 43.828125 407.6875 44.792969 408.902344 45.789062 C 410.117188 46.789062 411.304688 47.8125 412.46875 48.867188 C 413.632812 49.921875 414.769531 51.007812 415.882812 52.117188 C 416.992188 53.230469 418.074219 54.367188 419.132812 55.53125 C 420.1875 56.695312 421.210938 57.882812 422.207031 59.097656 C 423.207031 60.3125 424.171875 61.550781 425.109375 62.8125 C 426.042969 64.074219 426.949219 65.359375 427.820312 66.664062 C 428.695312 67.972656 429.535156 69.296875 430.34375 70.644531 C 431.148438 71.992188 431.921875 73.359375 432.664062 74.746094 C 433.40625 76.132812 434.109375 77.535156 434.78125 78.953125 C 435.453125 80.375 436.089844 81.8125 436.691406 83.261719 C 437.292969 84.714844 437.859375 86.179688 438.386719 87.660156 C 438.917969 89.136719 439.410156 90.628906 439.867188 92.132812 C 440.324219 93.636719 440.742188 95.148438 441.121094 96.675781 C 441.503906 98.199219 441.847656 99.730469 442.15625 101.269531 C 442.460938 102.8125 442.730469 104.359375 442.960938 105.914062 C 443.191406 107.46875 443.382812 109.027344 443.539062 110.589844 C 443.691406 112.152344 443.808594 113.71875 443.882812 115.289062 C 443.960938 116.859375 444 118.429688 444 120 C 444 121.570312 443.960938 123.140625 443.882812 124.710938 C 443.808594 126.28125 443.691406 127.847656 443.539062 129.410156 C 443.382812 130.972656 443.191406 132.53125 442.960938 134.085938 C 442.730469 135.640625 442.460938 137.1875 442.15625 138.730469 C 441.847656 140.269531 441.503906 141.800781 441.121094 143.324219 C 440.742188 144.851562 440.320312 146.363281 439.867188 147.867188 C 439.410156 149.371094 438.917969 150.863281 438.386719 152.339844 C 437.859375 153.820312 437.292969 155.285156 436.691406 156.738281 C 436.089844 158.1875 435.453125 159.625 434.78125 161.046875 C 434.109375 162.464844 433.40625 163.867188 432.664062 165.253906 C 431.921875 166.640625 431.148438 168.007812 430.34375 169.355469 C 429.535156 170.703125 428.695312 172.027344 427.820312 173.335938 C 426.949219 174.640625 426.042969 175.925781 425.109375 177.1875 C 424.171875 178.449219 423.207031 179.6875 422.207031 180.902344 C 421.210938 182.117188 420.1875 183.304688 419.132812 184.46875 C 418.074219 185.632812 416.992188 186.769531 415.882812 187.882812 C 414.769531 188.992188 413.632812 190.078125 412.46875 191.132812 C 411.304688 192.1875 410.117188 193.210938 408.902344 194.210938 C 407.6875 195.207031 406.449219 196.171875 405.1875 197.109375 C 403.925781 198.042969 402.640625 198.949219 401.335938 199.820312 C 400.027344 200.695312 398.703125 201.535156 397.355469 202.34375 C 396.007812 203.148438 394.640625 203.921875 393.253906 204.664062 C 391.867188 205.40625 390.464844 206.109375 389.046875 206.78125 C 387.625 207.453125 386.1875 208.089844 384.738281 208.691406 C 383.285156 209.292969 381.820312 209.859375 380.339844 210.386719 C 378.863281 210.917969 377.371094 211.410156 375.867188 211.867188 C 374.363281 212.324219 372.851562 212.742188 371.324219 213.121094 C 369.800781 213.503906 368.269531 213.847656 366.730469 214.15625 C 365.1875 214.460938 363.640625 214.730469 362.085938 214.960938 C 360.53125 215.191406 358.972656 215.382812 357.410156 215.539062 C 355.847656 215.691406 354.28125 215.808594 352.710938 215.882812 C 351.140625 215.960938 349.570312 216 348 216 C 346.429688 216 344.859375 215.960938 343.289062 215.882812 C 341.71875 215.808594 340.152344 215.691406 338.589844 215.539062 C 337.027344 215.382812 335.46875 215.191406 333.914062 214.960938 C 332.359375 214.730469 330.8125 214.460938 329.269531 214.15625 C 327.730469 213.847656 326.199219 213.503906 324.675781 213.121094 C 323.148438 212.742188 321.636719 212.324219 320.132812 211.867188 C 318.628906 211.410156 317.136719 210.917969 315.660156 210.386719 C 314.179688 209.859375 312.714844 209.292969 311.261719 208.691406 C 309.8125 208.089844 308.375 207.453125 306.953125 206.78125 C 305.535156 206.109375 304.132812 205.40625 302.746094 204.664062 C 301.359375 203.921875 299.992188 203.148438 298.644531 202.34375 C 297.296875 201.535156 295.972656 200.695312 294.664062 199.820312 C 293.359375 198.949219 292.074219 198.042969 290.8125 197.109375 C 289.550781 196.171875 288.3125 195.207031 287.097656 194.210938 C 285.882812 193.210938 284.695312 192.1875 283.53125 191.132812 C 282.367188 190.078125 281.230469 188.992188 280.117188 187.882812 C 279.007812 186.769531 277.921875 185.632812 276.867188 184.46875 C 275.8125 183.304688 274.789062 182.117188 273.789062 180.902344 C 272.792969 179.6875 271.828125 178.449219 270.890625 177.1875 C 269.957031 175.925781 269.050781 174.640625 268.179688 173.335938 C 267.304688 172.027344 266.464844 170.703125 265.65625 169.355469 C 264.851562 168.007812 264.074219 166.640625 263.335938 165.253906 C 262.59375 163.867188 261.890625 162.464844 261.21875 161.046875 C 260.546875 159.625 259.910156 158.1875 259.308594 156.738281 C 258.707031 155.285156 258.140625 153.820312 257.613281 152.339844 C 257.082031 150.863281 256.589844 149.371094 256.132812 147.867188 C 255.675781 146.363281 255.257812 144.851562 254.878906 143.324219 C 254.496094 141.800781 254.152344 140.269531 253.84375 138.730469 C 253.539062 137.1875 253.269531 135.640625 253.039062 134.085938 C 252.808594 132.53125 252.617188 130.972656 252.460938 129.410156 C 252.308594 127.847656 252.191406 126.28125 252.117188 124.710938 C 252.039062 123.140625 252 121.570312 252 120 C 252 118.429688 252.042969 116.859375 252.121094 115.292969 C 252.199219 113.722656 252.316406 112.15625 252.472656 110.59375 C 252.628906 109.03125 252.820312 107.472656 253.054688 105.917969 C 253.285156 104.367188 253.554688 102.820312 253.863281 101.277344 C 254.171875 99.738281 254.515625 98.207031 254.898438 96.683594 C 255.28125 95.160156 255.703125 93.648438 256.160156 92.144531 C 256.617188 90.640625 257.109375 89.152344 257.640625 87.671875 C 258.167969 86.195312 258.734375 84.730469 259.335938 83.28125 C 259.9375 81.828125 260.574219 80.394531 261.25 78.972656 C 261.921875 77.554688 262.625 76.152344 263.367188 74.769531 C 264.109375 73.382812 264.882812 72.015625 265.691406 70.671875 C 266.5 69.324219 267.339844 67.996094 268.210938 66.691406 C 269.085938 65.386719 269.988281 64.101562 270.925781 62.839844 C 271.863281 61.578125 272.828125 60.339844 273.824219 59.128906 C 274.820312 57.914062 275.847656 56.726562 276.902344 55.5625 C 277.957031 54.398438 279.039062 53.261719 280.148438 52.148438 C 281.261719 51.039062 282.398438 49.957031 283.5625 48.902344 C 284.726562 47.847656 285.914062 46.820312 287.128906 45.824219 C 288.339844 44.828125 289.578125 43.863281 290.839844 42.925781 C 292.101562 41.988281 293.386719 41.085938 294.691406 40.210938 C 295.996094 39.339844 297.324219 38.5 298.671875 37.691406 C 300.015625 36.882812 301.382812 36.109375 302.769531 35.367188 C 304.152344 34.628906 305.554688 33.921875 306.972656 33.25 C 308.394531 32.574219 309.828125 31.9375 311.28125 31.335938 C 312.730469 30.734375 314.195312 30.167969 315.671875 29.640625 C 317.152344 29.109375 318.640625 28.617188 320.144531 28.160156 C 321.648438 27.703125 323.160156 27.28125 324.683594 26.898438 C 326.207031 26.515625 327.738281 26.171875 329.277344 25.863281 C 330.820312 25.554688 332.367188 25.285156 333.917969 25.054688 C 335.472656 24.820312 337.03125 24.628906 338.59375 24.472656 C 340.15625 24.316406 341.722656 24.199219 343.292969 24.121094 C 344.859375 24.042969 346.429688 24 348 24 Z M 348 24 " fill-opacity="1" fill-rule="nonzero"/><path fill="#ff00bf" d="M 336 131.152344 L 336 155.210938 C 326.789062 153.65625 324.171875 150.207031 324 148.804688 C 323.953125 148.019531 323.828125 147.25 323.632812 146.488281 C 323.433594 145.730469 323.167969 144.996094 322.828125 144.289062 C 322.488281 143.582031 322.085938 142.910156 321.617188 142.28125 C 321.148438 141.652344 320.625 141.074219 320.042969 140.542969 C 319.464844 140.015625 318.835938 139.546875 318.167969 139.140625 C 317.496094 138.734375 316.792969 138.394531 316.054688 138.121094 C 315.320312 137.851562 314.5625 137.652344 313.789062 137.527344 C 313.011719 137.402344 312.234375 137.351562 311.449219 137.378906 C 310.664062 137.417969 309.886719 137.53125 309.121094 137.71875 C 308.355469 137.910156 307.617188 138.171875 306.90625 138.507812 C 306.191406 138.84375 305.519531 139.246094 304.882812 139.714844 C 304.25 140.179688 303.667969 140.707031 303.136719 141.289062 C 302.609375 141.871094 302.140625 142.5 301.734375 143.175781 C 301.324219 143.851562 300.988281 144.558594 300.722656 145.300781 C 300.453125 146.039062 300.261719 146.800781 300.144531 147.582031 C 300.027344 148.359375 299.988281 149.144531 300.023438 149.929688 C 300.238281 154.550781 303.164062 175.582031 336 179.359375 L 336 180 C 336 180.789062 336.078125 181.566406 336.230469 182.339844 C 336.382812 183.113281 336.609375 183.863281 336.914062 184.59375 C 337.214844 185.320312 337.582031 186.011719 338.023438 186.667969 C 338.460938 187.320312 338.957031 187.929688 339.515625 188.484375 C 340.070312 189.042969 340.675781 189.539062 341.332031 189.976562 C 341.988281 190.414062 342.679688 190.785156 343.40625 191.085938 C 344.136719 191.386719 344.886719 191.617188 345.660156 191.769531 C 346.429688 191.921875 347.210938 192 348 192 C 348.789062 192 349.566406 191.921875 350.339844 191.769531 C 351.113281 191.617188 351.863281 191.386719 352.589844 191.085938 C 353.320312 190.785156 354.011719 190.414062 354.667969 189.976562 C 355.320312 189.539062 355.925781 189.042969 356.484375 188.484375 C 357.042969 187.929688 357.539062 187.320312 357.976562 186.667969 C 358.414062 186.011719 358.785156 185.320312 359.085938 184.59375 C 359.386719 183.863281 359.613281 183.113281 359.769531 182.339844 C 359.921875 181.566406 360 180.789062 360 180 L 360 179.132812 C 383.652344 175.457031 396 159.601562 396 143.988281 C 395.988281 128.375 383.632812 112.523438 360 108.847656 L 360 84.78125 C 369.148438 86.328125 371.808594 89.777344 372 91.261719 C 372.042969 92.042969 372.164062 92.8125 372.359375 93.574219 C 372.558594 94.332031 372.824219 95.066406 373.164062 95.773438 C 373.503906 96.476562 373.910156 97.144531 374.378906 97.773438 C 374.851562 98.398438 375.378906 98.976562 375.960938 99.5 C 376.542969 100.023438 377.171875 100.484375 377.847656 100.886719 C 378.519531 101.289062 379.226562 101.621094 379.96875 101.882812 C 380.707031 102.144531 381.464844 102.332031 382.238281 102.445312 C 383.015625 102.558594 383.792969 102.597656 384.578125 102.558594 C 385.359375 102.519531 386.132812 102.40625 386.894531 102.214844 C 387.652344 102.023438 388.390625 101.761719 389.097656 101.429688 C 389.808594 101.09375 390.476562 100.695312 391.109375 100.230469 C 391.738281 99.761719 392.320312 99.242188 392.847656 98.660156 C 393.375 98.082031 393.84375 97.457031 394.25 96.785156 C 394.65625 96.117188 394.992188 95.414062 395.261719 94.675781 C 395.53125 93.9375 395.722656 93.183594 395.84375 92.40625 C 395.964844 91.632812 396.007812 90.855469 395.976562 90.070312 C 395.761719 85.449219 392.835938 64.417969 360 60.640625 L 360 60 C 360 59.210938 359.921875 58.433594 359.769531 57.660156 C 359.617188 56.886719 359.386719 56.136719 359.085938 55.40625 C 358.785156 54.679688 358.414062 53.988281 357.976562 53.332031 C 357.539062 52.679688 357.042969 52.070312 356.484375 51.515625 C 355.929688 50.957031 355.320312 50.460938 354.667969 50.023438 C 354.011719 49.585938 353.320312 49.214844 352.59375 48.914062 C 351.863281 48.613281 351.113281 48.382812 350.339844 48.230469 C 349.566406 48.078125 348.789062 48 348 48 C 347.210938 48 346.433594 48.078125 345.660156 48.230469 C 344.886719 48.382812 344.136719 48.613281 343.40625 48.914062 C 342.679688 49.214844 341.988281 49.585938 341.332031 50.023438 C 340.679688 50.460938 340.070312 50.957031 339.515625 51.515625 C 338.957031 52.070312 338.460938 52.679688 338.023438 53.332031 C 337.585938 53.988281 337.214844 54.679688 336.914062 55.40625 C 336.613281 56.136719 336.382812 56.886719 336.230469 57.660156 C 336.078125 58.433594 336 59.210938 336 60 L 336 60.867188 C 312.347656 64.546875 300 80.402344 300 96.011719 C 300 111.625 312.363281 127.476562 336 131.152344 Z M 372 144 C 372 148.28125 367.886719 152.625 360 154.707031 L 360 133.277344 C 367.886719 135.363281 372 139.707031 372 144 Z M 336 85.292969 L 336 106.722656 C 328.117188 104.640625 324 100.292969 324 96.007812 C 324 91.71875 328.109375 87.375 336 85.292969 Z M 336 85.292969 " fill-opacity="1" fill-rule="nonzero"/></svg>
